<svg width="22" height="22" viewBox="0 0 22 22" fill="none" xmlns="http://www.w3.org/2000/svg">
<path d="M11 21C16.5228 21 21 16.5228 21 11C21 5.47715 16.5228 1 11 1C5.47715 1 1 5.47715 1 11C1 16.5228 5.47715 21 11 21Z" stroke="#040402" stroke-width="2" stroke-linecap="round" stroke-linejoin="round"/>
<path d="M8.08984 7.99666C8.32495 7.32833 8.789 6.76477 9.3998 6.4058C10.0106 6.04682 10.7287 5.9156 11.427 6.03538C12.1253 6.15515 12.7587 6.51819 13.2149 7.06019C13.6712 7.60219 13.9209 8.28819 13.9198 8.99666C13.9198 10.9967 10.9198 11.9967 10.9198 11.9967" stroke="#040402" stroke-width="2" stroke-linecap="round" stroke-linejoin="round"/>
<path d="M11 16H11.01" stroke="#040402" stroke-width="2" stroke-linecap="round" stroke-linejoin="round"/>
</svg>
