<svg width="20" height="10" viewBox="0 0 20 10" fill="none" xmlns="http://www.w3.org/2000/svg">
<path d="M15.0032 5.10155e-08H5.00081C4.17639 -0.000117703 3.36474 0.203615 2.63811 0.593059C1.91147 0.982503 1.29241 1.54557 0.836033 2.23214C0.379654 2.91872 0.10012 3.70748 0.0223172 4.52821C-0.0554855 5.34895 0.0708574 6.17619 0.390098 6.93629C0.709338 7.69638 1.21157 8.36575 1.85208 8.88479C2.49259 9.40384 3.2515 9.75645 4.06126 9.91125C4.87101 10.066 5.70647 10.0182 6.49327 9.77202C7.28007 9.52582 7.99378 9.0889 8.57087 8.50015H11.4309C12.0079 9.08883 12.7216 9.52573 13.5083 9.77194C14.295 10.0181 15.1303 10.066 15.94 9.91135C16.7497 9.75666 17.5085 9.40419 18.1491 8.88531C18.7896 8.36643 19.2919 7.69723 19.6113 6.93729C19.9306 6.17735 20.0572 5.35024 19.9796 4.52958C19.902 3.70891 19.6228 2.92015 19.1667 2.23351C18.7106 1.54687 18.0918 0.983642 17.3654 0.593963C16.639 0.204285 15.8275 0.000242979 15.0032 5.10155e-08ZM7.75085 5.3751C7.75085 5.47455 7.71134 5.56994 7.64102 5.64027C7.57069 5.71059 7.47531 5.7501 7.37585 5.7501H5.75082V7.37513C5.75082 7.47459 5.71131 7.56997 5.64098 7.6403C5.57065 7.71063 5.47527 7.75014 5.37581 7.75014H4.6258C4.52634 7.75014 4.43096 7.71063 4.36063 7.6403C4.2903 7.56997 4.25079 7.47459 4.25079 7.37513V5.7501H2.62576C2.5263 5.7501 2.43092 5.71059 2.36059 5.64027C2.29027 5.56994 2.25076 5.47455 2.25076 5.3751V4.62508C2.25076 4.52562 2.29027 4.43024 2.36059 4.35991C2.43092 4.28959 2.5263 4.25008 2.62576 4.25008H4.25079V2.62505C4.25079 2.52559 4.2903 2.4302 4.36063 2.35988C4.43096 2.28955 4.52634 2.25004 4.6258 2.25004H5.37581C5.47527 2.25004 5.57065 2.28955 5.64098 2.35988C5.71131 2.4302 5.75082 2.52559 5.75082 2.62505V4.25008H7.37585C7.47531 4.25008 7.57069 4.28959 7.64102 4.35991C7.71134 4.43024 7.75085 4.52562 7.75085 4.62508V5.3751ZM14.501 7.75014C14.2537 7.75014 14.0121 7.67683 13.8065 7.53947C13.6009 7.40212 13.4407 7.20689 13.3461 6.97848C13.2515 6.75007 13.2267 6.49873 13.275 6.25625C13.3232 6.01377 13.4423 5.79104 13.6171 5.61622C13.7919 5.4414 14.0146 5.32234 14.2571 5.27411C14.4996 5.22588 14.7509 5.25063 14.9793 5.34525C15.2078 5.43986 15.403 5.60008 15.5403 5.80564C15.6777 6.01121 15.751 6.25288 15.751 6.50012C15.751 6.83164 15.6193 7.14959 15.3849 7.38401C15.1505 7.61844 14.8325 7.75014 14.501 7.75014ZM16.501 4.75008C16.2538 4.75008 16.0121 4.67677 15.8065 4.53942C15.601 4.40206 15.4408 4.20684 15.3461 3.97843C15.2515 3.75001 15.2268 3.49868 15.275 3.25619C15.3232 3.01371 15.4423 2.79098 15.6171 2.61616C15.7919 2.44134 16.0147 2.32229 16.2571 2.27406C16.4996 2.22583 16.751 2.25058 16.9794 2.34519C17.2078 2.4398 17.403 2.60002 17.5404 2.80559C17.6777 3.01115 17.751 3.25283 17.751 3.50006C17.751 3.83159 17.6193 4.14954 17.3849 4.38396C17.1505 4.61839 16.8325 4.75008 16.501 4.75008Z" fill="#909090"/>
</svg>
