<svg width="26" height="21" viewBox="0 0 26 21" fill="none" xmlns="http://www.w3.org/2000/svg">
<path d="M13 0C14.0056 0 14.97 0.53405 15.6811 1.48467C16.3922 2.43528 16.7917 3.72459 16.7917 5.06897C16.7917 6.41334 16.3922 7.70265 15.6811 8.65326C14.97 9.60388 14.0056 10.1379 13 10.1379C11.9944 10.1379 11.03 9.60388 10.3189 8.65326C9.60781 7.70265 9.20833 6.41334 9.20833 5.06897C9.20833 3.72459 9.60781 2.43528 10.3189 1.48467C11.03 0.53405 11.9944 0 13 0ZM5.41667 3.62069C6.02333 3.62069 6.58667 3.83793 7.07417 4.22897C6.91167 6.3 7.36667 8.35655 8.29833 9.96414C7.75667 11.3545 6.67333 12.3103 5.41667 12.3103C4.55471 12.3103 3.72806 11.8526 3.11857 11.0378C2.50908 10.223 2.16667 9.11784 2.16667 7.96552C2.16667 6.8132 2.50908 5.70807 3.11857 4.89326C3.72806 4.07845 4.55471 3.62069 5.41667 3.62069ZM20.5833 3.62069C21.4453 3.62069 22.2719 4.07845 22.8814 4.89326C23.4909 5.70807 23.8333 6.8132 23.8333 7.96552C23.8333 9.11784 23.4909 10.223 22.8814 11.0378C22.2719 11.8526 21.4453 12.3103 20.5833 12.3103C19.3267 12.3103 18.2433 11.3545 17.7017 9.96414C18.6333 8.35655 19.0883 6.3 18.9258 4.22897C19.4133 3.83793 19.9767 3.62069 20.5833 3.62069ZM5.95833 18.4655C5.95833 15.4676 9.11083 13.0345 13 13.0345C16.8892 13.0345 20.0417 15.4676 20.0417 18.4655V21H5.95833V18.4655ZM0 21V18.8276C0 16.8145 2.0475 15.12 4.82083 14.6276C4.18167 15.6124 3.79167 16.9738 3.79167 18.4655V21H0ZM26 21H22.2083V18.4655C22.2083 16.9738 21.8183 15.6124 21.1792 14.6276C23.9525 15.12 26 16.8145 26 18.8276V21Z" fill="black"/>
</svg>
