<svg width="73" height="71" viewBox="0 0 73 71" fill="none" xmlns="http://www.w3.org/2000/svg">
<path d="M36.334 61.0578C27.2505 61.0578 19.2207 56.5139 14.5336 49.6982C14.6426 42.5984 29.0672 38.6936 36.334 38.6936C43.6007 38.6936 58.0253 42.5984 58.1343 49.6982C53.4473 56.5139 45.4174 61.0578 36.334 61.0578ZM36.334 10.6496C39.2249 10.6496 41.9974 11.7716 44.0416 13.7688C46.0857 15.766 47.2341 18.4748 47.2341 21.2992C47.2341 24.1237 46.0857 26.8324 44.0416 28.8296C41.9974 30.8268 39.2249 31.9488 36.334 31.9488C33.4431 31.9488 30.6705 30.8268 28.6264 28.8296C26.5822 26.8324 25.4338 24.1237 25.4338 21.2992C25.4338 18.4748 26.5822 15.766 28.6264 13.7688C30.6705 11.7716 33.4431 10.6496 36.334 10.6496ZM36.334 0C31.5625 0 26.8378 0.918201 22.4296 2.70218C18.0213 4.48615 14.0159 7.10097 10.642 10.3973C3.82803 17.0546 0 26.0839 0 35.4987C0 44.9135 3.82803 53.9428 10.642 60.6001C14.0159 63.8964 18.0213 66.5112 22.4296 68.2952C26.8378 70.0792 31.5625 70.9974 36.334 70.9974C45.9703 70.9974 55.212 67.2574 62.0259 60.6001C68.8399 53.9428 72.6679 44.9135 72.6679 35.4987C72.6679 15.8679 56.3176 0 36.334 0Z" fill="black"/>
</svg>
