<svg width="17" height="17" viewBox="0 0 17 17" fill="none" xmlns="http://www.w3.org/2000/svg">
<path d="M15.1868 7.82845L8.67721 14.338C7.87973 15.1355 6.79813 15.5835 5.67033 15.5835C4.54254 15.5835 3.46093 15.1355 2.66346 14.338C1.86598 13.5406 1.41797 12.459 1.41797 11.3312C1.41797 10.2034 1.86598 9.12176 2.66346 8.32428L9.17304 1.8147C9.70469 1.28305 10.4258 0.984375 11.1776 0.984375C11.9295 0.984375 12.6506 1.28305 13.1822 1.8147C13.7139 2.34635 14.0125 3.06742 14.0125 3.81928C14.0125 4.57115 13.7139 5.29222 13.1822 5.82387L6.66554 12.3335C6.39972 12.5993 6.03918 12.7486 5.66325 12.7486C5.28732 12.7486 4.92678 12.5993 4.66096 12.3335C4.39513 12.0676 4.24579 11.7071 4.24579 11.3312C4.24579 10.9552 4.39513 10.5947 4.66096 10.3289L10.6747 4.3222" stroke="#CBCBCB" stroke-linecap="round" stroke-linejoin="round"/>
</svg>
