<svg width="20" height="18" viewBox="0 0 20 18" fill="none" xmlns="http://www.w3.org/2000/svg">
<path d="M9.99902 0C4.473 0 1.03812e-10 4.47206 1.03812e-10 9.99902V11.8738C-2.99103e-06 12.106 0.0646319 12.3335 0.186662 12.5309C0.308692 12.7284 0.483296 12.888 0.690909 12.9918L1.25269 13.2726C1.33124 15.6197 3.25831 17.4983 5.62445 17.4983H6.56186C7.07958 17.4983 7.49927 17.0786 7.49927 16.5609V9.68656C7.49927 9.16883 7.07958 8.74915 6.56186 8.74915H5.62445C4.40027 8.74915 3.29378 9.25218 2.49976 10.0626V9.99902C2.49976 5.86392 5.86392 2.49976 9.99902 2.49976C14.1341 2.49976 17.4983 5.86392 17.4983 9.99902V10.0626C16.7043 9.25218 15.5978 8.74915 14.3736 8.74915H13.4362C12.9185 8.74915 12.4988 9.16883 12.4988 9.68656V16.5609C12.4988 17.0786 12.9185 17.4983 13.4362 17.4983H14.3736C16.7397 17.4983 18.6668 15.6196 18.7454 13.2726L19.3071 12.9918C19.5147 12.888 19.6893 12.7284 19.8114 12.531C19.9334 12.3335 19.998 12.106 19.998 11.8738V9.99902C19.998 4.47304 15.526 0 9.99902 0Z" fill="#161826"/>
</svg>
