<svg width="100" height="40" viewBox="0 0 100 40" fill="none" xmlns="http://www.w3.org/2000/svg">
<circle cx="80" cy="20" r="20" fill="#EEEFF4"/>
<path d="M90.7 22.35L89.7 23.35L87.65 21.35L88.65 20.35C88.85 20.14 89.19 20.13 89.42 20.35L90.7 21.63C90.89 21.83 90.89 22.15 90.7 22.35ZM81 27.94V30H83.06L89.12 23.88L87.07 21.88L81 27.94ZM74 28H79V30H74C72.9 30 72 29.11 72 28V14C72 12.9 72.9 12 74 12H75V10H77V12H85V10H87V12H88C89.11 12 90 12.9 90 14V18H74V28ZM74 14V16H88V14H74Z" fill="#909090"/>
<path d="M1 19.25L8.5 14L16 19.25V27.5C16 27.8978 15.8244 28.2794 15.5118 28.5607C15.1993 28.842 14.7754 29 14.3333 29H2.66667C2.22464 29 1.80072 28.842 1.48816 28.5607C1.17559 28.2794 1 27.8978 1 27.5V19.25Z" stroke="#909090" stroke-width="2" stroke-linecap="round" stroke-linejoin="round"/>
<path d="M6 29V21.5H11V29" stroke="#909090" stroke-width="2" stroke-linecap="round" stroke-linejoin="round"/>
</svg>
